<?xml version="1.0" standalone="no"?>
<!DOCTYPE svg PUBLIC "-//W3C//DTD SVG 20010904//EN"
 "http://www.w3.org/TR/2001/REC-SVG-20010904/DTD/svg10.dtd">
<svg version="1.0" xmlns="http://www.w3.org/2000/svg"
 width="300.000000pt" height="300.000000pt" viewBox="0 0 300.000000 300.000000"
 preserveAspectRatio="xMidYMid meet">
<metadata>
Created by potrace 1.10, written by Peter Selinger 2001-2011
</metadata>
<g transform="translate(0.000000,300.000000) scale(0.100000,-0.100000)"
fill="#000000" stroke="none">
<path d="M481 2797 c10 -128 54 -214 168 -328 l90 -89 -19 -77 c-11 -42 -20
-102 -20 -134 l0 -57 -52 28 c-65 35 -199 76 -297 91 -76 11 -234 9 -247 -3
-9 -10 88 -101 151 -142 114 -75 287 -128 478 -147 91 -9 130 -9 169 0 l50 11
74 -52 c87 -63 110 -96 89 -124 -14 -18 -19 -17 -132 43 -65 33 -142 68 -172
77 -75 22 -233 20 -375 -4 -123 -21 -284 -76 -269 -91 17 -17 148 -39 236 -39
49 0 143 7 210 16 113 15 213 15 302 -1 26 -5 25 -3 -8 9 -83 33 -188 40 -390
28 -313 -20 -357 -14 -113 13 155 18 322 17 463 -4 76 -11 189 -51 187 -67 -1
-5 -44 -8 -100 -6 -55 2 -121 -2 -149 -8 -66 -16 -346 -151 -342 -164 2 -6 36
-15 75 -19 59 -7 93 -5 185 13 61 13 136 31 165 42 29 11 56 18 59 15 2 -3
-17 -21 -43 -41 -32 -22 -51 -31 -56 -23 -9 15 -25 0 -68 -60 -19 -26 -27 -42
-17 -34 9 7 24 10 34 7 12 -5 41 18 107 85 50 51 115 108 143 127 47 31 57 34
95 28 24 -4 59 -18 79 -31 39 -25 119 -138 119 -167 0 -10 9 -22 20 -28 11 -6
20 -17 20 -25 0 -18 31 -20 48 -3 8 8 12 8 12 1 0 -20 -26 -32 -77 -37 -53 -5
-175 -35 -253 -61 -37 -13 -39 -15 -11 -10 32 5 33 4 19 -17 -18 -27 -67 -44
-154 -53 -87 -8 -121 -7 -145 6 -13 7 -19 6 -19 -1 0 -6 -4 -8 -10 -5 -5 3
-10 1 -10 -4 0 -17 -42 -13 -74 8 -28 19 -29 19 -80 -5 -73 -33 -221 -74 -268
-74 -53 0 -40 17 20 26 50 7 262 71 275 83 4 4 -5 22 -20 39 l-28 32 -55 -16
c-103 -30 -298 -142 -285 -163 12 -21 125 -45 205 -45 70 0 99 6 169 32 46 17
99 40 117 51 27 16 40 18 66 10 18 -5 48 -9 67 -9 48 0 34 -9 -40 -26 -35 -8
-66 -20 -70 -25 -9 -15 -153 -49 -206 -49 -23 0 -45 -4 -48 -10 -8 -13 105
-13 173 0 28 5 94 30 148 55 58 27 124 49 163 56 79 12 142 40 235 103 63 42
73 46 130 46 58 0 64 -2 96 -35 38 -39 36 -51 -4 -35 -53 20 -58 10 -10 -22
31 -21 65 -57 92 -98 53 -81 54 -63 3 46 -48 102 -37 100 23 -3 25 -41 54 -82
65 -90 12 -8 26 -24 32 -36 10 -18 6 -17 -20 7 l-31 30 0 -36 c0 -32 3 -36 33
-42 75 -15 134 -55 187 -126 58 -78 147 -163 230 -220 30 -20 74 -58 97 -83
30 -32 47 -44 61 -40 19 4 40 -13 29 -23 -9 -10 -57 -11 -57 -3 0 21 -131 4
-254 -32 -113 -34 -295 -115 -411 -185 -61 -36 -114 -70 -119 -75 -6 -5 10
-17 40 -31 63 -29 216 -31 313 -4 130 35 264 118 376 233 66 67 75 73 101 67
37 -8 74 -31 74 -46 0 -18 68 -115 96 -137 15 -12 34 -21 42 -21 9 0 39 -24
67 -54 l50 -54 57 12 c61 12 85 27 73 45 -3 6 -37 27 -74 46 -73 36 -105 64
-184 160 -27 33 -69 72 -92 86 -58 37 -123 114 -131 156 -5 26 0 47 20 86 14
29 26 63 26 75 0 28 14 43 66 70 90 46 151 162 130 247 -6 25 -46 37 -46 13 0
-6 -11 2 -25 18 -30 35 -32 22 -6 -30 11 -21 17 -45 14 -53 -3 -8 0 -19 7 -23
22 -14 -29 -90 -92 -138 -32 -24 -58 -49 -58 -57 0 -7 -5 -15 -11 -17 -7 -2
-20 -24 -30 -48 l-18 -45 0 46 c-1 52 -22 79 -62 79 -30 0 -49 -17 -49 -44 0
-18 -1 -18 -18 -3 -10 10 -24 17 -31 17 -25 0 8 -36 73 -80 58 -40 66 -49 66
-77 0 -46 -27 -43 -80 8 -38 37 -90 127 -90 157 0 6 -4 12 -10 12 -5 0 -10 7
-10 14 0 8 -25 32 -56 52 -68 45 -114 106 -139 182 -10 32 -24 64 -32 72 -11
12 -13 7 -13 -31 0 -89 92 -219 189 -268 34 -18 41 -26 41 -51 0 -35 -6 -36
-40 -13 -35 24 -211 181 -236 210 -20 23 -21 29 -9 72 6 25 19 60 27 76 18 35
33 95 23 95 -8 0 -35 -27 -35 -35 0 -3 4 -3 10 0 18 11 10 -25 -10 -45 -11
-11 -20 -29 -20 -40 0 -11 -9 -25 -19 -32 -15 -9 -17 -16 -9 -31 20 -37 2 -25
-45 31 -25 31 -75 103 -109 159 -35 57 -70 111 -78 120 -9 10 -28 40 -44 68
-16 27 -50 72 -75 98 -37 39 -46 57 -48 90 -4 56 23 166 63 254 19 40 40 99
49 132 24 95 17 206 -13 187 -15 -9 -49 -147 -67 -266 -8 -58 -24 -142 -35
-187 -11 -45 -20 -93 -20 -107 0 -14 -4 -26 -9 -26 -13 0 -88 84 -121 137 -51
81 -44 102 89 254 35 40 83 102 106 138 60 94 152 279 195 396 21 55 41 108
45 119 7 16 5 17 -12 8 -35 -19 -123 -104 -151 -146 -16 -22 -41 -70 -57 -106
-15 -36 -50 -109 -76 -162 -26 -54 -63 -139 -82 -190 -35 -93 -86 -193 -93
-185 -3 2 5 26 17 53 61 141 89 294 89 489 0 99 -23 208 -39 188 -9 -10 -64
-184 -85 -266 -29 -112 -39 -216 -31 -321 11 -135 11 -203 3 -212 -13 -13 -58
25 -58 50 0 24 -46 101 -80 131 -32 29 -24 1 20 -75 22 -38 40 -71 40 -73 0
-3 -7 -8 -16 -11 -17 -7 -32 2 -89 52 l-37 33 26 51 c14 27 26 54 26 59 0 4
12 34 27 66 26 54 28 56 31 29 2 -16 0 -32 -5 -35 -21 -14 -6 -63 36 -121 24
-33 49 -64 56 -70 13 -11 -44 212 -64 248 -11 20 -7 36 33 130 60 144 77 216
74 308 l-3 75 -68 -56 c-82 -68 -155 -165 -199 -262 -17 -40 -34 -73 -38 -73
-11 0 -39 67 -75 181 -21 67 -51 139 -71 170 -34 52 -102 129 -114 129 -3 0
-3 -37 1 -83z m174 -272 l19 -30 -26 23 c-28 26 -133 228 -143 277 -4 17 24
-31 62 -105 38 -74 77 -148 88 -165z m349 138 c-14 -38 -43 -104 -65 -147 -22
-43 -37 -81 -35 -84 3 -2 11 7 17 22 7 14 16 26 21 26 11 0 12 1 -22 -81 -17
-40 -33 -88 -35 -106 -4 -32 -33 -82 -47 -83 -5 0 -8 -7 -8 -15 0 -8 -5 -15
-12 -15 -6 0 -9 -3 -5 -6 3 -4 -3 -24 -13 -44 -17 -34 -18 -44 -7 -89 10 -44
17 -53 47 -66 l35 -16 -40 6 c-35 5 -332 94 -485 145 -76 25 -194 79 -188 86
3 2 23 -2 44 -9 101 -37 246 -87 309 -107 39 -13 76 -25 84 -28 9 -3 12 -1 8
6 -4 6 -60 27 -125 47 -167 52 -232 76 -232 86 0 5 35 7 78 4 73 -4 213 -40
306 -80 21 -9 49 -14 63 -10 13 3 32 1 43 -5 18 -10 20 -7 20 20 0 18 -4 29
-10 25 -16 -10 -11 62 10 150 10 44 16 83 14 87 -3 4 0 8 6 8 6 0 8 4 5 10 -3
5 13 47 36 92 44 84 118 173 126 151 2 -7 -14 -53 -36 -103 -22 -49 -38 -90
-35 -90 2 0 32 57 65 128 56 117 76 152 85 152 2 0 -8 -30 -22 -67z m441 -30
c-24 -49 -73 -146 -107 -218 -58 -118 -136 -241 -146 -230 -2 2 15 35 39 72
23 37 74 133 111 213 73 153 127 250 140 250 4 0 -12 -39 -37 -87z m-308 -25
c-12 -142 -47 -434 -59 -488 l-12 -55 -6 40 c-13 96 -1 276 22 318 8 15 48
223 48 250 0 4 3 7 6 7 4 0 4 -33 1 -72z m-649 -567 c5 -14 6 -14 -58 9 -30
11 -56 20 -57 20 -2 0 -3 4 -3 9 0 12 113 -24 118 -38z m492 -318 c-157 -70
-431 -155 -447 -140 -2 3 44 19 101 37 61 19 103 37 99 43 -3 6 -1 7 5 3 6 -3
59 12 119 33 109 40 198 57 123 24z m-380 -387 c0 -12 -22 -25 -50 -31 -3 -1
-31 -9 -64 -19 -100 -30 -78 -3 34 40 67 27 80 28 80 10z m94 -75 c9 -14 -94
-53 -151 -57 -58 -4 -72 10 -20 21 17 4 38 12 45 17 6 6 12 8 12 4 0 -4 12 0
28 8 30 17 78 21 86 7z m1482 -361 c4 -27 10 -50 15 -50 5 0 9 -4 9 -10 0 -21
-30 5 -64 56 l-36 54 35 0 c34 0 34 -1 41 -50z m-150 -47 c32 -41 33 -44 9
-23 -32 27 -65 61 -65 67 0 14 24 -5 56 -44z m173 -132 c15 -23 15 -24 -4 -13
-11 6 -29 18 -40 27 -20 15 -20 16 4 13 13 -2 31 -14 40 -27z m-24 -157 c-79
-61 -341 -186 -490 -234 -51 -16 -124 -32 -161 -35 -81 -6 -67 2 56 36 150 40
479 174 496 201 4 6 -2 6 -13 -1 -11 -6 -23 -7 -27 -4 -3 3 -6 2 -6 -4 0 -6
-15 -13 -32 -17 -18 -4 -52 -16 -76 -27 -24 -12 -46 -19 -49 -15 -3 3 -11 -1
-17 -9 -6 -8 -23 -16 -38 -17 -15 -1 -24 -6 -22 -10 6 -10 -62 -38 -93 -38
-13 0 -42 -9 -63 -20 -22 -11 -40 -17 -40 -13 1 9 77 59 106 69 10 4 26 13 34
20 8 7 44 22 80 34 36 12 70 25 75 29 15 12 156 44 188 43 15 0 44 5 65 13 48
18 51 18 27 -1z m311 -145 c3 -6 24 -24 46 -40 23 -16 34 -29 25 -29 -8 0 -29
11 -45 25 -17 14 -34 25 -39 25 -9 0 -53 45 -53 54 0 7 59 -25 66 -35z m-486
7 c0 -2 -26 -19 -59 -39 -80 -47 -187 -89 -241 -94 l-45 -4 54 26 c29 14 57
25 62 25 9 0 18 4 134 54 80 34 95 39 95 32z"/>
<path d="M2070 2815 c-90 -46 -206 -129 -202 -144 1 -7 -2 -10 -8 -6 -14 9
-79 -58 -134 -138 -50 -74 -65 -126 -17 -59 37 49 143 158 193 196 25 18 35
33 31 44 -4 13 -3 14 5 4 7 -11 11 -11 23 0 32 31 172 112 162 94 -4 -8 -50
-58 -102 -113 -51 -54 -149 -169 -217 -256 -96 -122 -125 -166 -129 -195 -13
-104 -14 -126 -6 -107 5 11 12 43 16 72 8 58 21 80 149 247 81 107 173 202
220 228 14 8 12 -2 -13 -47 -17 -31 -44 -76 -60 -99 -39 -56 -141 -227 -141
-235 0 -9 -126 -188 -145 -208 -17 -16 -35 -17 -36 0 0 6 -5 1 -11 -13 l-11
-25 -6 30 c-3 16 -1 77 6 135 7 58 15 137 18 175 5 67 4 69 -9 40 -17 -34 -21
-20 -6 19 7 21 6 26 -5 26 -8 0 -15 -8 -15 -17 0 -10 -3 -36 -6 -58 -4 -32 -3
-37 6 -25 10 13 11 12 5 -5 -4 -11 -13 -81 -21 -155 -8 -74 -17 -142 -19 -151
-4 -13 4 -18 38 -22 23 -3 49 -8 57 -11 40 -14 294 383 437 681 71 146 65 157
-47 98z"/>
<path d="M2260 2631 c0 -25 -100 -372 -147 -511 -39 -114 -75 -191 -127 -273
-26 -40 -32 -60 -29 -84 4 -26 2 -33 -11 -33 -20 0 -20 -19 0 -91 15 -53 15
-58 -2 -78 -10 -11 -24 -21 -31 -21 -36 0 -113 -59 -141 -108 -19 -34 3 -26
32 12 27 36 115 86 151 86 20 0 21 5 20 93 l-1 92 55 60 c84 92 125 147 187
250 134 226 169 421 98 562 -30 60 -54 79 -54 44z m30 -85 c0 -13 5 -26 11
-28 19 -6 13 -137 -11 -222 -26 -95 -93 -240 -105 -229 -4 5 -5 3 -1 -4 9 -16
-22 -76 -35 -68 -5 4 -9 3 -8 -2 3 -18 -1 -36 -7 -30 -4 4 -40 -39 -81 -94
-41 -56 -76 -99 -79 -96 -2 2 23 48 57 101 33 54 68 119 76 144 9 26 20 53 26
60 5 6 6 12 2 12 -4 0 -3 6 2 13 6 6 22 59 38 117 15 58 43 146 61 197 19 51
34 106 34 123 0 16 5 30 10 30 6 0 10 -11 10 -24z"/>
<path d="M1652 2561 c-12 -21 -22 -44 -22 -50 0 -20 39 -11 51 12 7 12 17 25
23 29 8 5 8 12 0 25 -18 28 -29 25 -52 -16z"/>
<path d="M228 2501 c-58 -23 -110 -60 -103 -72 4 -5 27 -9 53 -9 54 0 205 -23
507 -76 28 -5 26 -1 -34 55 -95 91 -152 115 -276 118 -79 3 -110 -1 -147 -16z
m288 -67 c138 -40 147 -54 14 -24 -156 36 -192 41 -262 38 -77 -3 -94 6 -28
15 67 9 190 -4 276 -29z"/>
<path d="M2058 2418 c-25 -24 -66 -74 -90 -113 -58 -92 -172 -309 -157 -300 6
4 14 3 18 -3 3 -5 44 64 91 156 70 137 95 175 144 224 52 51 85 73 74 51 -2
-5 -11 -24 -20 -43 -10 -19 -36 -80 -59 -135 -23 -55 -68 -153 -100 -217 -33
-65 -59 -125 -59 -134 0 -32 31 14 81 123 77 165 79 170 105 245 32 91 64 158
75 158 5 0 9 7 9 15 0 10 -10 15 -34 15 -25 0 -44 -10 -78 -42z"/>
<path d="M1578 2357 c-53 -41 -296 -493 -276 -512 3 -3 13 16 23 42 28 77 66
142 80 137 6 -3 37 26 68 63 92 112 99 120 93 100 -12 -38 -19 -150 -9 -144 6
4 13 41 17 83 4 42 10 91 13 108 l6 31 -29 -37 c-16 -20 -58 -73 -92 -118 -35
-45 -66 -79 -69 -77 -4 5 58 95 140 204 21 29 36 57 32 62 -3 6 2 22 11 36 19
29 15 41 -8 22z"/>
<path d="M2474 2163 c-61 -57 -106 -122 -144 -207 -34 -74 -46 -131 -31 -140
6 -4 11 -1 11 7 0 26 77 180 110 222 17 22 39 40 47 40 8 0 24 16 34 35 20 35
20 35 13 5 -4 -16 -8 -47 -9 -68 -2 -21 -6 -52 -9 -70 -3 -18 -8 -51 -11 -74
-7 -57 -37 -136 -94 -247 -26 -50 -55 -110 -64 -133 -9 -24 -21 -43 -27 -43
-12 0 -13 -6 4 81 8 41 17 95 21 121 5 41 63 173 92 210 11 15 24 48 19 48 -2
0 -34 -49 -70 -110 -45 -75 -66 -120 -66 -142 0 -18 -9 -76 -20 -128 -24 -116
-24 -105 3 -117 22 -10 25 -7 57 66 19 42 56 114 82 161 25 47 58 120 73 163
44 133 69 354 40 364 -6 2 -33 -18 -61 -44z"/>
<path d="M2643 2108 c-30 -37 -164 -362 -163 -396 0 -6 103 203 137 278 7 14
12 19 12 11 1 -16 -64 -169 -137 -321 -142 -299 -137 -284 -104 -322 13 -16
18 -15 71 14 31 17 100 58 154 91 54 33 100 57 102 55 3 -2 -38 -40 -90 -83
-52 -44 -95 -81 -95 -83 0 -1 21 11 48 28 26 18 91 77 144 133 53 56 99 99
102 96 11 -11 -59 -104 -130 -174 -77 -75 -180 -137 -193 -117 -8 13 -51 -20
-51 -39 0 -25 138 35 207 89 74 58 209 249 190 269 -12 12 -97 -15 -192 -61
-82 -40 -132 -71 -232 -148 -43 -34 -58 -36 -41 -6 7 12 31 55 54 97 22 42 50
93 62 114 12 20 20 37 17 37 -3 0 4 15 15 33 11 17 20 40 20 50 0 9 9 26 19
36 11 11 29 39 39 63 34 72 25 13 -14 -107 -21 -60 -41 -111 -45 -113 -5 -2
-9 -10 -9 -17 0 -7 -3 -15 -7 -17 -5 -1 -17 -19 -27 -38 -13 -23 -15 -31 -5
-23 8 6 19 11 24 10 14 -1 69 114 99 208 31 99 45 179 47 273 2 74 -9 104 -28
80z m42 -563 c-11 -8 -29 -23 -40 -33 -27 -26 -195 -128 -222 -137 -39 -11
-27 19 20 52 23 16 67 42 97 56 30 14 78 39 105 55 49 29 79 34 40 7z"/>
<path d="M2222 1998 c-24 -60 -78 -241 -108 -355 l-29 -113 -37 0 c-34 0 -57
-14 -45 -27 3 -2 24 -7 46 -10 35 -5 40 -3 35 11 -5 13 0 16 25 16 17 0 31 2
31 4 0 19 83 412 89 424 6 11 10 8 15 -13 4 -16 14 -38 23 -49 14 -20 15 -17
9 36 -6 56 -23 108 -35 108 -4 0 -12 -15 -19 -32z"/>
<path d="M1700 2014 c0 -9 29 -31 70 -53 19 -11 51 -35 70 -55 36 -36 50 -44
50 -26 0 16 -92 105 -127 123 -33 17 -63 22 -63 11z"/>
<path d="M1337 1798 c-19 -15 -41 -68 -28 -68 9 0 34 34 44 63 8 20 6 21 -16
5z"/>
<path d="M1387 1793 c-20 -20 2 -121 24 -108 5 4 7 10 4 15 -2 4 -6 28 -6 54
-2 44 -8 54 -22 39z"/>
<path d="M2013 1684 c-15 -30 -15 -36 -3 -44 12 -8 12 -14 -3 -45 -24 -51 -21
-62 9 -34 49 46 70 119 42 147 -19 19 -27 15 -45 -24z"/>
<path d="M1345 1700 c-3 -4 -2 -16 2 -27 11 -28 73 -106 73 -91 0 7 -9 24 -20
38 -11 14 -20 37 -20 51 0 26 -24 46 -35 29z"/>
<path d="M1444 1561 c17 -32 74 -85 124 -114 24 -14 31 -24 26 -36 -12 -30
-17 -101 -7 -101 11 0 23 46 23 86 0 19 5 24 27 24 27 0 27 0 -11 26 -46 32
-66 47 -120 95 -23 20 -49 39 -59 42 -16 6 -16 4 -3 -22z"/>
<path d="M740 1512 c-33 -35 -44 -52 -31 -52 5 0 24 18 41 40 36 45 28 53 -10
12z"/>
<path d="M1229 1501 c24 -21 91 -30 91 -12 0 14 -10 18 -65 26 l-50 6 24 -20z"/>
<path d="M920 1473 c-14 -2 -56 -13 -93 -24 -77 -23 -164 -26 -197 -9 -41 22
-18 -22 28 -55 43 -30 45 -30 160 -28 92 1 157 10 307 41 l190 39 -44 12
c-100 28 -264 39 -351 24z m239 -32 c21 -13 -93 -44 -161 -43 -32 1 -60 -3
-63 -9 -4 -5 -11 -7 -16 -4 -5 4 -9 2 -9 -3 0 -9 -1 -10 -77 -17 -44 -5 -56
-2 -73 15 -11 11 -32 20 -47 20 -52 0 -14 11 73 21 49 6 116 14 149 18 84 11
207 12 224 2z"/>
<path d="M965 1340 l-30 -8 30 0 c17 0 41 4 55 8 l25 8 -25 0 c-14 0 -38 -4
-55 -8z"/>
<path d="M1360 1304 c54 -60 89 -88 97 -80 4 3 -6 19 -21 35 -16 16 -25 34
-22 40 8 12 -28 37 -69 47 l-30 7 45 -49z"/>
<path d="M1253 1306 c-17 -18 -36 -36 -44 -39 -9 -3 -6 -6 7 -6 14 -1 30 12
48 39 32 49 28 51 -11 6z"/>
<path d="M1154 1265 c-4 -8 -12 -15 -19 -15 -25 0 -138 -40 -186 -66 -69 -38
-154 -131 -190 -208 -83 -178 -56 -304 81 -374 53 -27 59 -32 30 -26 -41 7
-40 7 -150 -4 -47 -5 -98 -6 -115 -2 l-30 6 40 9 c22 5 43 8 48 7 4 -1 7 3 7
8 0 6 18 10 40 10 30 0 40 4 40 16 0 14 -8 16 -52 10 -70 -8 -169 -38 -169
-51 0 -17 64 -44 132 -54 68 -11 201 -1 237 18 9 5 54 18 100 29 200 51 366
182 421 332 28 76 26 113 -8 185 -30 64 -74 109 -129 132 -67 28 -67 8 0 -30
97 -54 112 -80 113 -192 0 -89 -1 -91 -37 -141 -31 -42 -107 -118 -160 -160
-21 -17 -145 -70 -193 -83 -78 -21 -155 -12 -191 23 -18 18 -35 56 -26 56 7 0
8 28 3 75 -1 6 -8 1 -16 -9 -21 -28 -29 -14 -27 49 1 85 26 156 74 213 16 18
28 36 28 40 0 23 175 132 212 132 9 0 20 5 23 10 3 6 17 10 29 10 24 0 79 43
69 54 -11 10 -23 7 -29 -9z"/>
<path d="M1464 1172 c9 -17 16 -41 16 -53 0 -19 4 -21 38 -16 50 9 82 -1 82
-24 0 -11 5 -19 10 -19 20 0 9 29 -21 54 -26 22 -37 25 -66 20 -31 -6 -34 -4
-31 12 3 14 11 18 31 17 15 -1 27 0 27 3 0 5 -40 21 -76 30 l-26 7 16 -31z"/>
<path d="M1390 1171 c0 -12 35 -41 48 -41 24 0 11 28 -18 39 -16 5 -30 6 -30
2z"/>
<path d="M1437 1099 c3 -12 11 -18 19 -15 8 3 14 1 14 -4 0 -19 66 -43 96 -36
28 7 28 8 10 22 -11 8 -37 14 -58 14 -27 0 -40 5 -48 20 -14 27 -40 27 -33 -1z"/>
<path d="M2680 1051 c-102 -33 -198 -90 -283 -170 -57 -53 -121 -137 -113
-149 11 -18 123 -46 181 -46 71 1 145 33 219 96 38 33 216 265 216 283 0 13
-170 2 -220 -14z m100 -51 c-106 -70 -137 -98 -67 -59 32 17 60 29 63 26 8 -7
-28 -56 -41 -57 -12 -1 -85 -67 -85 -77 0 -4 5 -2 12 5 7 7 16 12 21 12 14 0
-34 -43 -89 -81 -48 -33 -135 -51 -184 -38 l-25 6 25 10 c14 6 34 20 44 32 11
11 24 21 30 21 6 0 22 9 36 20 14 11 -18 0 -71 -26 -128 -60 -179 -57 -57 4
81 41 154 83 347 201 108 65 140 67 41 1z m-55 11 c-6 -5 -46 -28 -90 -52 -44
-23 -83 -47 -87 -53 -4 -6 -8 -8 -8 -3 0 4 -18 -5 -40 -19 -51 -34 -65 -23
-19 15 40 34 183 109 219 114 14 3 27 5 30 6 2 0 0 -3 -5 -8z"/>
<path d="M1567 940 c-54 -103 -57 -113 -43 -129 26 -28 20 -44 -13 -38 -23 5
-33 1 -46 -16 l-16 -22 5 25 c3 14 35 80 72 148 36 68 64 126 61 128 -9 9 -50
-17 -94 -59 -45 -44 -56 -65 -24 -47 11 5 22 10 25 10 12 0 -6 -65 -27 -100
l-22 -35 -3 28 c-4 29 -22 38 -22 11 0 -9 -35 -48 -77 -87 -43 -39 -117 -109
-164 -157 -60 -58 -108 -96 -155 -120 -38 -19 -71 -36 -73 -37 -1 -1 0 -6 3
-11 4 -6 31 2 66 19 33 16 64 29 68 29 4 0 34 32 67 70 65 78 246 250 264 250
6 0 11 -11 11 -24 0 -12 5 -38 11 -55 9 -24 14 -30 23 -21 6 6 11 16 11 23 0
7 11 14 25 15 41 6 50 20 49 79 -1 41 3 61 20 83 11 16 21 34 21 40 0 6 9 28
20 50 24 46 43 45 96 -9 35 -36 84 -119 84 -143 0 -7 7 -26 16 -43 29 -55 14
-168 -28 -208 -10 -10 -31 -21 -46 -23 -14 -3 -30 -10 -33 -16 -4 -7 -9 -5
-12 3 -4 10 -6 10 -6 2 -1 -13 -23 -7 -89 24 -66 31 -48 -13 19 -48 105 -53
218 6 259 135 20 62 8 174 -25 242 -34 69 -91 129 -125 130 -14 1 -41 5 -60 8
l-35 7 -58 -111z m220 26 c2 -31 -7 -34 -24 -7 -10 15 -10 21 0 24 8 3 6 10
-8 22 -19 17 -19 17 5 2 15 -9 26 -25 27 -41z m62 -140 c14 -56 14 -86 0 -86
-5 0 -9 8 -8 18 1 9 -1 24 -4 32 -9 25 -14 80 -6 80 3 0 12 -20 18 -44z"/>
<path d="M1654 935 c10 -8 20 -27 21 -43 1 -15 10 -42 18 -59 9 -17 13 -33 10
-37 -4 -3 1 -6 10 -6 24 0 25 20 5 75 -17 47 -50 85 -73 84 -5 0 -1 -6 9 -14z"/>
<path d="M1375 634 c-111 -84 -174 -124 -282 -178 -166 -83 -333 -136 -429
-136 -19 0 -34 -4 -34 -9 0 -15 60 -57 99 -70 131 -43 458 40 647 165 56 37
164 140 164 156 0 19 -27 5 -64 -35 -73 -78 -159 -134 -280 -181 -38 -15 -76
-29 -85 -31 -9 -2 -43 -13 -76 -25 -49 -18 -82 -21 -181 -21 -168 1 -197 14
-65 30 103 12 290 69 416 126 63 28 197 115 252 163 l32 28 -21 32 c-11 17
-23 32 -26 32 -4 0 -34 -21 -67 -46z m65 -18 c0 -30 -129 -120 -147 -102 -4 4
0 12 9 17 9 5 23 15 30 22 29 28 93 77 100 77 5 0 8 -6 8 -14z"/>
</g>
</svg>
